<svg xmlns="http://www.w3.org/2000/svg" xmlns:xlink="http://www.w3.org/1999/xlink" width="56.952" height="87.418" viewBox="0 0 56.952 87.418"><defs><clipPath id="a"><rect width="56.952" height="87.418" fill="none"/></clipPath></defs><g clip-path="url(#a)"><path d="M24.747,38.67h2.417V60.736l-4.71-4.71A24.553,24.553,0,0,1,24.747,19.29Z" transform="translate(-11.333 -14.319)" fill="#f2f2f2"/><path d="M77.151,24.351V58.115a2,2,0,0,1-.783-.484L66.439,47.7V24.351h2.414V1.492A24.473,24.473,0,0,1,74.736,0V24.351Z" transform="translate(-49.319)" fill="#f2f2f2"/><path d="M123.721,24.351V47.7l-9.929,9.926a2,2,0,0,1-.783.484V24.351h2.414V0a24.473,24.473,0,0,1,5.883,1.492V24.351Z" transform="translate(-83.889)" fill="#f2f2f2"/><path d="M171.476,38.67a24.473,24.473,0,0,1-7.187,17.355l-4.71,4.71V38.67H162V19.29a24.558,24.558,0,0,1,9.48,19.38" transform="translate(-118.458 -14.319)" fill="#f2f2f2"/><path d="M0,232.951a.115.115,0,0,1,.131-.131H7.385a.116.116,0,0,1,.131.131v.693a.116.116,0,0,1-.131.131L4.98,234a.116.116,0,0,0-.131.131v15.346a.115.115,0,0,0,.131.131h6.209q.131,0,.131-.1l.536-2.98c0-.07.044-.1.131-.1h.993a.116.116,0,0,1,.131.131V250.7a.116.116,0,0,1-.131.131H.131A.115.115,0,0,1,0,250.7v-.693c0-.1.043-.144.131-.144l2.248-.209a.116.116,0,0,0,.131-.131v-15.4A.116.116,0,0,0,2.379,234l-2.248-.222A.115.115,0,0,1,0,233.643Z" transform="translate(0 -172.826)" fill="#f2f2f2"/><path d="M61.5,232.82a.156.156,0,0,1,.1.078l5.712,14.078L73.039,232.9a.1.1,0,0,1,.1-.078h5.333a.116.116,0,0,1,.131.131v.693a.116.116,0,0,1-.131.131L76.2,234c-.1,0-.144.044-.144.131v15.4c0,.078.048.122.144.13l2.405.209a.129.129,0,0,1,.131.144v.693a.116.116,0,0,1-.131.131H71.078a.116.116,0,0,1-.131-.131v-.693a.129.129,0,0,1,.131-.144l2.523-.209c.087-.008.131-.052.131-.13V234.663h-.1l-6.614,16.352c-.018.035-.061.052-.131.052h-.274q-.1,0-.131-.052l-6.614-16.169h-.1v14.679a.115.115,0,0,0,.131.13l2.222.209a.127.127,0,0,1,.144.144v.693q0,.131-.144.131H55.981a.116.116,0,0,1-.131-.131v-.693a.129.129,0,0,1,.131-.144l2.392-.209c.087-.008.131-.052.131-.13v-15.4a.116.116,0,0,0-.131-.131l-2.274-.222c-.1,0-.144-.044-.144-.131v-.693c0-.087.048-.131.144-.131Z" transform="translate(-41.458 -172.826)" fill="#f2f2f2"/><path d="M149.237,232.951a.115.115,0,0,1,.131-.131h4.719a.2.2,0,0,1,.1.052l9.934,13.137V234.232q0-.131-.118-.131l-1.974-.209c-.087,0-.131-.048-.131-.144v-.8a.116.116,0,0,1,.131-.131H167.6a.116.116,0,0,1,.131.131v.8c0,.1-.044.144-.131.144l-2.013.209a.115.115,0,0,0-.131.131v16.679c0,.087-.052.131-.157.131h-.51a.265.265,0,0,1-.131-.078l-11.542-15.28v13.725q0,.144.1.144l1.961.209a.116.116,0,0,1,.131.131v.81a.116.116,0,0,1-.131.131h-5.568c-.1,0-.144-.044-.144-.131v-.81c0-.087.048-.131.144-.131l2.026-.209a.127.127,0,0,0,.144-.144V234.232q0-.131-.144-.131l-2.274-.209c-.087,0-.131-.048-.131-.144Z" transform="translate(-110.781 -172.826)" fill="#f2f2f2"/><path d="M38.29,318.97a1.468,1.468,0,0,0,.652-.574,1.679,1.679,0,0,0,.226-.885,1.768,1.768,0,0,0-.226-.911,1.489,1.489,0,0,0-.652-.592,2.265,2.265,0,0,0-1-.207H34.8v5.923h.844V319.17h1.043l1.638,2.554h.992l-1.693-2.575a2.128,2.128,0,0,0,.668-.179M35.643,316.6h1.644a1.118,1.118,0,0,1,.762.24.845.845,0,0,1,.274.67.865.865,0,0,1-.274.681,1.106,1.106,0,0,1-.762.244H35.643Z" transform="translate(-25.832 -234.424)" fill="#f2f2f2"/><path d="M57.039,315.8h-.829v5.923h3.835v-.77H57.054v-1.844h2.695v-.74H57.054v-1.8h3.065v-.77h-3.08Z" transform="translate(-41.725 -234.425)" fill="#f2f2f2"/><path d="M76.152,316.415a1.93,1.93,0,0,1,1.04-.274,1.756,1.756,0,0,1,1.192.4,1.859,1.859,0,0,1,.592,1.136h.785a2.685,2.685,0,0,0-.4-1.251,2.25,2.25,0,0,0-.892-.807,2.8,2.8,0,0,0-1.281-.281,2.757,2.757,0,0,0-1.462.385,2.584,2.584,0,0,0-.981,1.081,3.564,3.564,0,0,0-.348,1.614,3.63,3.63,0,0,0,.341,1.614,2.563,2.563,0,0,0,.962,1.081,2.831,2.831,0,0,0,2.632.115,2.229,2.229,0,0,0,.87-.774,2.635,2.635,0,0,0,.407-1.192h-.785a1.966,1.966,0,0,1-.614,1.059,1.612,1.612,0,0,1-1.081.378,1.815,1.815,0,0,1-1-.274,1.763,1.763,0,0,1-.655-.788,2.975,2.975,0,0,1-.23-1.218,2.927,2.927,0,0,1,.233-1.218,1.753,1.753,0,0,1,.674-.789" transform="translate(-55.229 -234.083)" fill="#f2f2f2"/><path d="M102.2,315.722a3.066,3.066,0,0,0-2.962,0,2.557,2.557,0,0,0-.985,1.077,3.953,3.953,0,0,0,0,3.243,2.556,2.556,0,0,0,.985,1.077,3.068,3.068,0,0,0,2.962,0,2.558,2.558,0,0,0,.984-1.077,3.95,3.95,0,0,0,0-3.243,2.559,2.559,0,0,0-.984-1.077m.251,3.917a1.767,1.767,0,0,1-.681.788,2.153,2.153,0,0,1-2.1,0,1.766,1.766,0,0,1-.681-.788,3.247,3.247,0,0,1,0-2.436,1.767,1.767,0,0,1,.681-.789,2.155,2.155,0,0,1,2.1,0,1.768,1.768,0,0,1,.681.789,3.25,3.25,0,0,1,0,2.436" transform="translate(-72.678 -234.083)" fill="#f2f2f2"/><path d="M127.894,318.97a1.467,1.467,0,0,0,.651-.574,1.679,1.679,0,0,0,.226-.885,1.768,1.768,0,0,0-.226-.911,1.488,1.488,0,0,0-.651-.592,2.268,2.268,0,0,0-1-.207H124.4v5.923h.844V319.17h1.043l1.638,2.554h.992l-1.693-2.575a2.135,2.135,0,0,0,.668-.179m-2.647-2.369h1.644a1.118,1.118,0,0,1,.763.24.846.846,0,0,1,.274.67.866.866,0,0,1-.274.681,1.107,1.107,0,0,1-.763.244h-1.644Z" transform="translate(-92.346 -234.424)" fill="#f2f2f2"/><path d="M149.352,316.16a3.145,3.145,0,0,0-1.54-.359h-2v5.923h2a3.142,3.142,0,0,0,1.54-.359,2.428,2.428,0,0,0,1-1.025,3.746,3.746,0,0,0,0-3.154,2.429,2.429,0,0,0-1-1.026m.259,3.765a1.7,1.7,0,0,1-.7.744,2.222,2.222,0,0,1-1.1.255h-1.155V316.6h1.155a2.219,2.219,0,0,1,1.1.255,1.7,1.7,0,0,1,.7.744,2.884,2.884,0,0,1,0,2.325" transform="translate(-108.239 -234.424)" fill="#f2f2f2"/><path d="M170.768,318.052l-.8-.1a1.563,1.563,0,0,1-.785-.278.665.665,0,0,1-.281-.544.874.874,0,0,1,.167-.54,1.016,1.016,0,0,1,.489-.337,2.339,2.339,0,0,1,.781-.115,1.676,1.676,0,0,1,1.033.292,1.305,1.305,0,0,1,.492.833h.829a2.143,2.143,0,0,0-.344-1.044,1.856,1.856,0,0,0-.8-.655,2.971,2.971,0,0,0-1.207-.226,3.054,3.054,0,0,0-1.207.219,1.75,1.75,0,0,0-.785.622,1.653,1.653,0,0,0-.274.951,1.488,1.488,0,0,0,.459,1.14,2.274,2.274,0,0,0,1.318.533l.8.1a1.526,1.526,0,0,1,.777.281.68.68,0,0,1,.281.555.863.863,0,0,1-.159.522.962.962,0,0,1-.47.329,2.261,2.261,0,0,1-.755.111,1.758,1.758,0,0,1-.992-.252,1.122,1.122,0,0,1-.481-.725H168a1.734,1.734,0,0,0,1.125,1.566,3.134,3.134,0,0,0,1.2.211,3.026,3.026,0,0,0,1.181-.211,1.7,1.7,0,0,0,.77-.611,1.666,1.666,0,0,0,.271-.955,1.488,1.488,0,0,0-.459-1.14,2.277,2.277,0,0,0-1.318-.533" transform="translate(-124.709 -234.084)" fill="#f2f2f2"/></g></svg>